Metropolis-Regular.ufo
<glyph name="exclam" format="2">
	<advance width="229"/>
	<unicode hex="0021"/>
	<outline>
		<contour>
			<point x="69" y="687" type="line"/>
			<point x="88" y="193" type="line"/>
			<point x="141" y="193" type="line"/>
			<point x="161" y="687" type="line"/>
		</contour>
		<contour>
			<point x="115" y="-12" type="curve"/>
			<point x="115" y="-12" type="line"/>
			<point x="144" y="-12"/>
			<point x="168" y="13"/>
			<point x="168" y="43" type="curve"/>
			<point x="168" y="71"/>
			<point x="144" y="96"/>
			<point x="115" y="96" type="curve"/>
			<point x="84" y="96"/>
			<point x="60" y="71"/>
			<point x="60" y="43" type="curve"/>
			<point x="60" y="13"/>
			<point x="84" y="-12"/>
		</contour>
	</outline>
</glyph>
<glyph name="F" format="2">
	<advance width="620"/>
	<unicode hex="0046"/>
	<outline>
		<contour>
			<point x="78" y="687" type="line"/>
			<point x="78" y="0" type="line"/>
			<point x="157" y="0" type="line"/>
			<point x="157" y="333" type="line"/>
			<point x="137" y="313" type="line"/>
			<point x="530" y="313" type="line"/>
			<point x="530" y="387" type="line"/>
			<point x="137" y="387" type="line"/>
			<point x="157" y="367" type="line"/>
			<point x="157" y="633" type="line"/>
			<point x="137" y="613" type="line"/>
			<point x="571" y="613" type="line"/>
			<point x="571" y="687" type="line"/>
		</contour>
	</outline>
</glyph>
<glyph name="H" format="2">
	<advance width="717"/>
	<unicode hex="0048"/>
	<outline>
		<contour>
			<point x="78" y="687" type="line"/>
			<point x="78" y="0" type="line"/>
			<point x="156" y="0" type="line"/>
			<point x="156" y="335" type="line"/>
			<point x="134" y="313" type="line"/>
			<point x="582" y="313" type="line"/>
			<point x="561" y="335" type="line"/>
			<point x="561" y="0" type="line"/>
			<point x="639" y="0" type="line"/>
			<point x="639" y="687" type="line"/>
			<point x="561" y="687" type="line"/>
			<point x="561" y="365" type="line"/>
			<point x="583" y="387" type="line"/>
			<point x="134" y="387" type="line"/>
			<point x="156" y="365" type="line"/>
			<point x="156" y="687" type="line"/>
		</contour>
	</outline>
</glyph>
<glyph name="M" format="2">
	<advance width="822"/>
	<unicode hex="004D"/>
	<outline>
		<contour>
			<point x="78" y="687" type="line"/>
			<point x="78" y="0" type="line"/>
			<point x="156" y="0" type="line"/>
			<point x="156" y="519" type="line"/>
			<point x="411" y="40" type="line"/>
			<point x="666" y="519" type="line"/>
			<point x="666" y="0" type="line"/>
			<point x="744" y="0" type="line"/>
			<point x="744" y="687" type="line"/>
			<point x="666" y="687" type="line"/>
			<point x="411" y="208" type="line"/>
			<point x="156" y="687" type="line"/>
		</contour>
	</outline>
</glyph>
<glyph name="Q" format="2">
	<advance width="812"/>
	<unicode hex="0051"/>
	<anchor x="406" y="687" name="top"/>
	<outline>
		<contour>
			<point x="459" y="212" type="line"/>
			<point x="703" y="0" type="line"/>
			<point x="753" y="58" type="line"/>
			<point x="509" y="270" type="line"/>
		</contour>
		<contour>
			<point x="406" y="-12" type="curve"/>
			<point x="406" y="-12" type="line"/>
			<point x="597" y="-12"/>
			<point x="757" y="151"/>
			<point x="757" y="344" type="curve"/>
			<point x="757" y="537"/>
			<point x="597" y="699"/>
			<point x="406" y="699" type="curve"/>
			<point x="216" y="699"/>
			<point x="54" y="537"/>
			<point x="54" y="344" type="curve"/>
			<point x="54" y="151"/>
			<point x="216" y="-12"/>
		</contour>
		<contour>
			<point x="406" y="60" type="curve"/>
			<point x="406" y="60" type="line"/>
			<point x="258" y="60"/>
			<point x="133" y="190"/>
			<point x="133" y="344" type="curve"/>
			<point x="133" y="497"/>
			<point x="258" y="627"/>
			<point x="406" y="627" type="curve"/>
			<point x="554" y="627"/>
			<point x="678" y="497"/>
			<point x="678" y="344" type="curve"/>
			<point x="678" y="190"/>
			<point x="554" y="60"/>
		</contour>
	</outline>
</glyph>
<glyph name="T" format="2">
	<advance width="638"/>
	<unicode hex="0054"/>
	<anchor x="319" y="687" name="top"/>
	<anchor x="319" y="0" name="bottom"/>
	<outline>
		<contour>
			<point x="280" y="613" type="line"/>
			<point x="280" y="0" type="line"/>
			<point x="358" y="0" type="line"/>
			<point x="358" y="613" type="line"/>
			<point x="589" y="613" type="line"/>
			<point x="589" y="687" type="line"/>
			<point x="49" y="687" type="line"/>
			<point x="49" y="613" type="line"/>
		</contour>
	</outline>
</glyph>
<glyph name="e" format="2">
	<advance width="568"/>
	<unicode hex="0065"/>
	<anchor x="291" y="517" name="top"/>
	<anchor x="268" y="-12" name="bottom"/>
	<outline>
		<contour>
			<point x="298" y="-12" type="curve"/>
			<point x="298" y="-12" type="line"/>
			<point x="370" y="-12"/>
			<point x="461" y="19"/>
			<point x="506" y="68" type="curve"/>
			<point x="460" y="117" type="line"/>
			<point x="428" y="82"/>
			<point x="358" y="55"/>
			<point x="297" y="55" type="curve"/>
			<point x="185" y="55"/>
			<point x="111" y="144"/>
			<point x="111" y="260" type="curve"/>
			<point x="111" y="380"/>
			<point x="191" y="462"/>
			<point x="294" y="462" type="curve"/>
			<point x="407" y="462"/>
			<point x="463" y="374"/>
			<point x="463" y="268" type="curve"/>
			<point x="506" y="297" type="line"/>
			<point x="87" y="297" type="line"/>
			<point x="87" y="230" type="line"/>
			<point x="536" y="230" type="line"/>
			<point x="536" y="411"/>
			<point x="447" y="529"/>
			<point x="291" y="529" type="curve"/>
			<point x="152" y="529"/>
			<point x="36" y="414"/>
			<point x="36" y="260" type="curve"/>
			<point x="36" y="101"/>
			<point x="160" y="-12"/>
		</contour>
	</outline>
</glyph>
<glyph name="g" format="2">
	<advance width="594"/>
	<unicode hex="0067"/>
	<anchor x="292" y="517" name="top"/>
	<anchor x="283" y="-172" name="bottom"/>
	<outline>
		<contour>
			<point x="283" y="-172" type="curve"/>
			<point x="283" y="-172" type="line"/>
			<point x="432" y="-172"/>
			<point x="537" y="-78"/>
			<point x="537" y="55" type="curve"/>
			<point x="537" y="517" type="line"/>
			<point x="462" y="517" type="line"/>
			<point x="462" y="55" type="line" smooth="yes"/>
			<point x="462" y="-46"/>
			<point x="392" y="-105"/>
			<point x="273" y="-105" type="curve"/>
			<point x="209" y="-105"/>
			<point x="147" y="-82"/>
			<point x="107" y="-44" type="curve"/>
			<point x="74" y="-103" type="line"/>
			<point x="121" y="-143"/>
			<point x="199" y="-172"/>
		</contour>
		<contour>
			<point x="274" y="38" type="curve"/>
			<point x="274" y="38" type="line"/>
			<point x="367" y="38"/>
			<point x="439" y="87"/>
			<point x="477" y="166" type="curve"/>
			<point x="477" y="401" type="line"/>
			<point x="439" y="480"/>
			<point x="367" y="529"/>
			<point x="274" y="529" type="curve"/>
			<point x="135" y="529"/>
			<point x="36" y="428"/>
			<point x="36" y="284" type="curve"/>
			<point x="36" y="140"/>
			<point x="135" y="38"/>
		</contour>
		<contour>
			<point x="288" y="105" type="curve"/>
			<point x="288" y="105" type="line"/>
			<point x="187" y="105"/>
			<point x="115" y="179"/>
			<point x="115" y="284" type="curve"/>
			<point x="115" y="388"/>
			<point x="187" y="462"/>
			<point x="288" y="462" type="curve"/>
			<point x="390" y="462"/>
			<point x="462" y="388"/>
			<point x="462" y="284" type="curve"/>
			<point x="462" y="179"/>
			<point x="390" y="105"/>
		</contour>
	</outline>
</glyph>
<glyph name="u" format="2">
	<advance width="546"/>
	<unicode hex="0075"/>
	<anchor x="262" y="517" name="top"/>
	<anchor x="489" y="0" name="bottom"/>
	<outline>
		<contour>
			<point x="244" y="-12" type="curve"/>
			<point x="244" y="-12" type="line"/>
			<point x="341" y="-12"/>
			<point x="425" y="55"/>
			<point x="430" y="138" type="curve"/>
			<point x="414" y="188" type="line"/>
			<point x="414" y="115"/>
			<point x="342" y="55"/>
			<point x="254" y="55" type="curve"/>
			<point x="178" y="55"/>
			<point x="125" y="113"/>
			<point x="125" y="198" type="curve"/>
			<point x="125" y="517" type="line"/>
			<point x="50" y="517" type="line"/>
			<point x="50" y="188" type="line" smooth="yes"/>
			<point x="50" y="69"/>
			<point x="129" y="-12"/>
		</contour>
		<contour>
			<point x="414" y="517" type="line"/>
			<point x="414" y="0" type="line"/>
			<point x="489" y="0" type="line"/>
			<point x="489" y="517" type="line"/>
		</contour>
	</outline>
</glyph>
<glyph name="bar" format="2">
	<advance width="236"/>
	<unicode hex="007C"/>
	<outline>
		<contour>
			<point x="88" y="743" type="line"/>
			<point x="88" y="-74" type="line"/>
			<point x="148" y="-74" type="line"/>
			<point x="148" y="743" type="line"/>
		</contour>
	</outline>
</glyph>
<glyph name="sterling" format="2">
	<advance width="658"/>
	<unicode hex="00A3"/>
	<outline>
		<contour>
			<point x="71" y="38" type="line"/>
			<point x="71" y="0" type="line"/>
			<point x="589" y="0" type="line"/>
			<point x="589" y="74" type="line"/>
			<point x="191" y="74" type="line"/>
			<point x="214" y="50" type="line"/>
			<point x="214" y="463" type="line" smooth="yes"/>
			<point x="214" y="560"/>
			<point x="272" y="628"/>
			<point x="353" y="628" type="curve"/>
			<point x="426" y="628"/>
			<point x="490" y="587"/>
			<point x="507" y="529" type="curve"/>
			<point x="564" y="585" type="line"/>
			<point x="532" y="652"/>
			<point x="445" y="699"/>
			<point x="353" y="699" type="curve"/>
			<point x="226" y="699"/>
			<point x="136" y="601"/>
			<point x="136" y="463" type="curve"/>
			<point x="136" y="74" type="line"/>
		</contour>
		<contour>
			<point x="74" y="328" type="line"/>
			<point x="74" y="261" type="line"/>
			<point x="416" y="261" type="line"/>
			<point x="416" y="328" type="line"/>
		</contour>
	</outline>
</glyph>
<glyph name="degree" format="2">
	<advance width="414"/>
	<unicode hex="00B0"/>
	<outline>
		<contour>
			<point x="207" y="423" type="curve"/>
			<point x="207" y="423" type="line"/>
			<point x="288" y="423"/>
			<point x="347" y="481"/>
			<point x="347" y="561" type="curve"/>
			<point x="347" y="641"/>
			<point x="288" y="699"/>
			<point x="207" y="699" type="curve"/>
			<point x="126" y="699"/>
			<point x="67" y="641"/>
			<point x="67" y="561" type="curve"/>
			<point x="67" y="481"/>
			<point x="126" y="423"/>
		</contour>
		<contour>
			<point x="207" y="485" type="curve"/>
			<point x="207" y="485" type="line"/>
			<point x="165" y="485"/>
			<point x="135" y="517"/>
			<point x="135" y="561" type="curve"/>
			<point x="135" y="605"/>
			<point x="165" y="637"/>
			<point x="207" y="637" type="curve"/>
			<point x="249" y="637"/>
			<point x="279" y="605"/>
			<point x="279" y="561" type="curve"/>
			<point x="279" y="517"/>
			<point x="249" y="485"/>
		</contour>
	</outline>
</glyph>
<glyph name="periodcentered" format="2">
	<advance width="221"/>
	<unicode hex="00B7"/>
	<outline>
		<contour>
			<point x="111" y="221" type="curve"/>
			<point x="111" y="221" type="line"/>
			<point x="139" y="221"/>
			<point x="162" y="243"/>
			<point x="162" y="273" type="curve"/>
			<point x="162" y="302"/>
			<point x="139" y="324"/>
			<point x="111" y="324" type="curve"/>
			<point x="82" y="324"/>
			<point x="59" y="302"/>
			<point x="59" y="273" type="curve"/>
			<point x="59" y="243"/>
			<point x="82" y="221"/>
		</contour>
	</outline>
</glyph>
<glyph name="Oslash" format="2">
	<advance width="812"/>
	<unicode hex="00D8"/>
	<anchor x="407" y="687" name="top"/>
	<outline>
		<contour>
			<point x="407" y="-12" type="curve"/>
			<point x="407" y="-12" type="line"/>
			<point x="598" y="-12"/>
			<point x="758" y="151"/>
			<point x="758" y="344" type="curve"/>
			<point x="758" y="537"/>
			<point x="598" y="699"/>
			<point x="407" y="699" type="curve"/>
			<point x="217" y="699"/>
			<point x="55" y="537"/>
			<point x="55" y="344" type="curve"/>
			<point x="55" y="151"/>
			<point x="217" y="-12"/>
		</contour>
		<contour>
			<point x="407" y="60" type="curve"/>
			<point x="407" y="60" type="line"/>
			<point x="259" y="60"/>
			<point x="134" y="190"/>
			<point x="134" y="344" type="curve"/>
			<point x="134" y="497"/>
			<point x="259" y="627"/>
			<point x="407" y="627" type="curve"/>
			<point x="555" y="627"/>
			<point x="679" y="497"/>
			<point x="679" y="344" type="curve"/>
			<point x="679" y="190"/>
			<point x="555" y="60"/>
		</contour>
		<contour>
			<point x="661" y="687" type="line"/>
			<point x="60" y="0" type="line"/>
			<point x="145" y="0" type="line"/>
			<point x="746" y="687" type="line"/>
		</contour>
	</outline>
</glyph>
<glyph name="thorn" format="2">
	<advance width="597"/>
	<unicode hex="00FE"/>
	<outline>
		<contour>
			<point x="323" y="-12" type="curve"/>
			<point x="323" y="-12" type="line"/>
			<point x="459" y="-12"/>
			<point x="561" y="100"/>
			<point x="561" y="259" type="curve"/>
			<point x="561" y="417"/>
			<point x="459" y="529"/>
			<point x="323" y="529" type="curve"/>
			<point x="186" y="529"/>
			<point x="96" y="417"/>
			<point x="96" y="259" type="curve"/>
			<point x="96" y="100"/>
			<point x="186" y="-12"/>
		</contour>
		<contour>
			<point x="309" y="55" type="curve"/>
			<point x="309" y="55" type="line"/>
			<point x="207" y="55"/>
			<point x="135" y="140"/>
			<point x="135" y="259" type="curve"/>
			<point x="135" y="378"/>
			<point x="207" y="462"/>
			<point x="309" y="462" type="curve"/>
			<point x="410" y="462"/>
			<point x="482" y="378"/>
			<point x="482" y="259" type="curve"/>
			<point x="482" y="140"/>
			<point x="410" y="55"/>
		</contour>
		<contour>
			<point x="60" y="699" type="line"/>
			<point x="60" y="-172" type="line"/>
			<point x="135" y="-172" type="line"/>
			<point x="135" y="699" type="line"/>
		</contour>
	</outline>
</glyph>
<glyph name="oe" format="2">
	<advance width="1022"/>
	<unicode hex="0153"/>
	<anchor x="302" y="517" name="top"/>
	<anchor x="725" y="-12" name="bottom"/>
	<outline>
		<contour>
			<point x="302" y="-12" type="curve"/>
			<point x="302" y="-12" type="line"/>
			<point x="397" y="-12"/>
			<point x="481" y="40"/>
			<point x="528" y="118" type="curve"/>
			<point x="575" y="38"/>
			<point x="660" y="-12"/>
			<point x="752" y="-12" type="curve"/>
			<point x="824" y="-12"/>
			<point x="915" y="19"/>
			<point x="960" y="68" type="curve"/>
			<point x="914" y="117" type="line"/>
			<point x="882" y="82"/>
			<point x="812" y="55"/>
			<point x="751" y="55" type="curve"/>
			<point x="639" y="55"/>
			<point x="567" y="144"/>
			<point x="567" y="260" type="curve"/>
			<point x="567" y="380"/>
			<point x="645" y="462"/>
			<point x="748" y="462" type="curve"/>
			<point x="861" y="462"/>
			<point x="917" y="374"/>
			<point x="917" y="268" type="curve"/>
			<point x="960" y="297" type="line"/>
			<point x="541" y="297" type="line"/>
			<point x="541" y="230" type="line"/>
			<point x="990" y="230" type="line"/>
			<point x="990" y="411"/>
			<point x="901" y="529"/>
			<point x="745" y="529" type="curve"/>
			<point x="654" y="529"/>
			<point x="572" y="479"/>
			<point x="527" y="402" type="curve"/>
			<point x="480" y="478"/>
			<point x="397" y="529"/>
			<point x="302" y="529" type="curve"/>
			<point x="155" y="529"/>
			<point x="35" y="409"/>
			<point x="35" y="260" type="curve"/>
			<point x="35" y="111"/>
			<point x="155" y="-12"/>
		</contour>
		<contour>
			<point x="302" y="55" type="curve"/>
			<point x="302" y="55" type="line"/>
			<point x="198" y="55"/>
			<point x="113" y="148"/>
			<point x="113" y="260" type="curve"/>
			<point x="113" y="372"/>
			<point x="198" y="462"/>
			<point x="302" y="462" type="curve"/>
			<point x="405" y="462"/>
			<point x="490" y="372"/>
			<point x="490" y="260" type="curve"/>
			<point x="490" y="148"/>
			<point x="405" y="55"/>
		</contour>
	</outline>
</glyph>
<glyph name="tcaron" format="2">
	<advance width="468"/>
	<unicode hex="0165"/>
	<anchor x="239" y="0" name="bottom"/>
	<outline>
		<contour>
			<point x="237" y="-12" type="curve"/>
			<point x="237" y="-12" type="line"/>
			<point x="272" y="-12"/>
			<point x="306" y="0"/>
			<point x="333" y="21" type="curve"/>
			<point x="296" y="76" type="line"/>
			<point x="285" y="64"/>
			<point x="265" y="55"/>
			<point x="242" y="55" type="curve"/>
			<point x="212" y="55"/>
			<point x="186" y="82"/>
			<point x="186" y="120" type="curve"/>
			<point x="186" y="659" type="line"/>
			<point x="111" y="659" type="line"/>
			<point x="111" y="120" type="line" smooth="yes"/>
			<point x="111" y="43"/>
			<point x="163" y="-12"/>
		</contour>
		<contour>
			<point x="30" y="517" type="line"/>
			<point x="30" y="450" type="line"/>
			<point x="313" y="450" type="line"/>
			<point x="313" y="517" type="line"/>
		</contour>
		<contour>
			<point x="369" y="529" type="curve"/>
			<point x="401" y="506" type="line"/>
			<point x="451" y="570"/>
			<point x="466" y="598"/>
			<point x="466" y="631" type="curve"/>
			<point x="466" y="671"/>
			<point x="446" y="699"/>
			<point x="414" y="699" type="curve"/>
			<point x="388" y="699"/>
			<point x="368" y="678"/>
			<point x="368" y="654" type="curve"/>
			<point x="368" y="629"/>
			<point x="388" y="608"/>
			<point x="413" y="608" type="curve"/>
			<point x="407" y="581"/>
			<point x="392" y="555"/>
		</contour>
	</outline>
</glyph>
<glyph name="dotaccentcomb" format="2">
	<advance width="0"/>
	<unicode hex="0307"/>
	<anchor x="-88" y="517" name="_top"/>
	<outline>
		<contour>
			<point x="-88" y="611" type="curve"/>
			<point x="-88" y="611" type="line"/>
			<point x="-61" y="611"/>
			<point x="-39" y="634"/>
			<point x="-39" y="661" type="curve"/>
			<point x="-39" y="687"/>
			<point x="-61" y="710"/>
			<point x="-88" y="710" type="curve"/>
			<point x="-116" y="710"/>
			<point x="-138" y="687"/>
			<point x="-138" y="661" type="curve"/>
			<point x="-138" y="634"/>
			<point x="-116" y="611"/>
		</contour>
	</outline>
</glyph>
<glyph name="euro" format="2">
	<advance width="817"/>
	<unicode hex="20AC"/>
	<anchor x="503" y="687" name="top"/>
	<anchor x="503" y="0" name="bottom"/>
	<outline>
		<contour>
			<point x="73" y="303" type="line"/>
			<point x="73" y="236" type="line"/>
			<point x="569" y="236" type="line"/>
			<point x="569" y="303" type="line"/>
		</contour>
		<contour>
			<point x="73" y="470" type="line"/>
			<point x="73" y="403" type="line"/>
			<point x="569" y="403" type="line"/>
			<point x="569" y="470" type="line"/>
		</contour>
		<contour>
			<point x="503" y="-12" type="curve"/>
			<point x="503" y="-12" type="line"/>
			<point x="598" y="-12"/>
			<point x="686" y="29"/>
			<point x="750" y="93" type="curve"/>
			<point x="697" y="147" type="line"/>
			<point x="647" y="94"/>
			<point x="578" y="60"/>
			<point x="503" y="60" type="curve"/>
			<point x="355" y="60"/>
			<point x="230" y="190"/>
			<point x="230" y="344" type="curve"/>
			<point x="230" y="497"/>
			<point x="355" y="627"/>
			<point x="503" y="627" type="curve"/>
			<point x="578" y="627"/>
			<point x="647" y="593"/>
			<point x="697" y="540" type="curve"/>
			<point x="750" y="594" type="line"/>
			<point x="686" y="659"/>
			<point x="598" y="699"/>
			<point x="503" y="699" type="curve"/>
			<point x="313" y="699"/>
			<point x="151" y="537"/>
			<point x="151" y="344" type="curve"/>
			<point x="151" y="151"/>
			<point x="313" y="-12"/>
		</contour>
	</outline>
</glyph>
<glyph name="ae_upper" format="2">
	<advance width="489"/>
	<anchor x="448" y="687" name="_ae_upper"/>
	<outline>
		<contour>
			<point x="400" y="687" type="line"/>
			<point x="4" y="0" type="line"/>
			<point x="94" y="0" type="line"/>
			<point x="491" y="687" type="line"/>
		</contour>
		<contour>
			<point x="150" y="230" type="line"/>
			<point x="150" y="156" type="line"/>
			<point x="469" y="156" type="line"/>
			<point x="469" y="230" type="line"/>
		</contour>
	</outline>
</glyph>
<glyph name="k_arms" format="2">
	<advance width="420"/>
	<anchor x="22" y="126" name="k_arms"/>
	<outline>
		<contour>
			<point x="126" y="229" type="line"/>
			<point x="305" y="0" type="line"/>
			<point x="399" y="0" type="line"/>
			<point x="179" y="280" type="line"/>
			<point x="412" y="517" type="line"/>
			<point x="316" y="517" type="line"/>
			<point x="22" y="220" type="line"/>
			<point x="22" y="126" type="line"/>
		</contour>
	</outline>
</glyph>
